<?xml version="1.0" standalone="no"?>
<!DOCTYPE svg PUBLIC "-//W3C//DTD SVG 20010904//EN"
 "http://www.w3.org/TR/2001/REC-SVG-20010904/DTD/svg10.dtd">
<svg version="1.0" xmlns="http://www.w3.org/2000/svg"
 width="4096.000000pt" height="4096.000000pt" viewBox="0 0 4096.000000 4096.000000"
 preserveAspectRatio="xMidYMid meet">
<metadata>
Created by potrace 1.14, written by Peter Selinger 2001-2017
</metadata>
<g transform="translate(0.000000,4096.000000) scale(0.100000,-0.100000)"
fill="#000000" stroke="none">
<path d="M18367 29323 c-1 -1 -27 -2 -57 -4 -183 -9 -367 -103 -457 -234 -59
-87 -84 -151 -108 -275 -21 -112 -21 -10518 0 -10685 26 -204 85 -391 168
-540 22 -38 43 -72 46 -75 4 -3 17 -21 30 -40 34 -50 159 -169 227 -216 154
-104 335 -172 537 -200 15 -2 42 -7 60 -11 51 -10 6334 -12 6402 -2 72 11 187
50 245 83 61 35 146 121 186 188 19 33 34 65 34 72 0 6 4 16 8 22 5 5 14 29
21 53 7 24 16 54 19 65 12 39 14 2205 2 2281 -32 209 -135 366 -297 453 -52
27 -87 39 -205 69 -13 3 -959 7 -2103 8 -1144 1 -2082 3 -2085 4 -3 0 -5 1885
-5 4188 -1 2304 -4 4215 -8 4248 -19 165 -84 297 -197 402 -73 67 -217 127
-338 139 -55 6 -2120 13 -2125 7z"/>
<path d="M9898 25635 c-2 -2 -66 -6 -143 -9 -77 -4 -158 -9 -180 -11 -22 -2
-62 -6 -90 -9 -70 -7 -144 -16 -185 -22 -65 -10 -75 -12 -135 -19 -33 -4 -62
-9 -65 -10 -3 -2 -24 -6 -46 -9 -22 -4 -51 -9 -64 -12 -14 -3 -36 -7 -50 -10
-203 -37 -532 -123 -740 -194 -148 -50 -396 -144 -480 -183 -19 -8 -60 -27
-90 -40 -96 -43 -313 -150 -375 -185 -33 -19 -89 -50 -125 -70 -36 -19 -77
-43 -92 -54 -14 -10 -29 -18 -32 -18 -5 0 -326 -211 -406 -267 -384 -269 -842
-694 -1165 -1083 -48 -58 -95 -114 -104 -125 -61 -73 -219 -291 -315 -433
-210 -312 -367 -594 -551 -987 -236 -503 -456 -1216 -551 -1790 -3 -16 -11
-66 -19 -110 -8 -44 -16 -100 -20 -125 -3 -25 -7 -56 -9 -70 -4 -23 -20 -149
-30 -240 -2 -19 -7 -75 -11 -125 -3 -49 -8 -101 -10 -115 -13 -74 -20 -316
-19 -645 0 -335 4 -481 19 -660 4 -53 7 -86 20 -220 3 -36 14 -138 20 -180 9
-73 35 -262 39 -280 2 -11 7 -40 11 -65 3 -25 13 -76 20 -115 7 -38 16 -86 19
-105 14 -91 127 -568 140 -588 3 -5 7 -20 9 -33 10 -51 137 -453 167 -524 4
-11 13 -36 20 -55 7 -19 16 -44 21 -55 4 -11 29 -72 55 -135 125 -311 323
-709 469 -945 14 -22 28 -47 32 -55 7 -16 97 -153 176 -270 51 -77 229 -319
265 -361 11 -13 57 -69 102 -124 182 -222 455 -501 685 -701 456 -395 992
-731 1545 -967 226 -97 531 -205 729 -258 187 -51 286 -76 333 -84 16 -3 56
-12 90 -19 35 -8 77 -17 93 -20 17 -3 42 -7 58 -10 64 -13 213 -37 252 -40 11
-2 38 -6 60 -9 39 -7 73 -11 203 -22 35 -4 78 -8 95 -10 102 -13 300 -20 582
-19 318 0 465 7 635 29 19 2 62 7 95 10 33 3 85 9 115 15 30 5 75 12 100 15
64 9 95 14 175 30 98 20 126 25 160 31 84 15 429 109 570 154 152 50 423 151
510 190 22 10 92 42 155 70 63 28 119 55 124 61 6 5 18 9 27 9 10 0 19 3 21 8
2 4 26 18 53 31 28 13 91 47 140 74 50 27 106 59 125 69 19 11 49 28 65 38 17
11 47 30 69 42 57 33 59 35 201 129 72 48 164 112 205 143 41 30 86 64 99 73
38 27 125 96 131 102 3 3 28 24 55 46 28 22 55 44 61 50 6 5 38 32 70 60 187
159 463 436 660 664 16 19 34 39 39 45 37 42 148 182 236 301 256 342 472 699
669 1101 50 101 90 186 90 188 0 3 13 33 29 68 66 143 241 609 267 708 2 8 17
60 34 115 50 161 154 571 165 653 2 13 8 45 14 70 11 51 37 194 46 257 4 22 8
51 11 65 9 52 44 327 48 381 3 30 8 75 11 100 6 48 10 106 22 309 15 255 8
887 -12 1105 -2 28 -7 82 -10 120 -12 143 -28 277 -51 435 -8 58 -17 116 -19
130 -3 21 -14 90 -29 172 -24 134 -64 319 -97 451 -23 89 -42 169 -44 177 -21
93 -135 447 -206 644 -98 268 -276 662 -407 901 -21 39 -52 95 -68 125 -143
259 -456 718 -625 915 -263 306 -320 367 -511 550 -481 463 -1080 871 -1658
1128 -19 9 -66 30 -105 47 -320 143 -850 308 -1204 375 -144 27 -329 57 -436
70 -134 17 -156 19 -286 30 -42 3 -101 8 -130 11 -55 5 -626 13 -631 9z m522
-2998 c14 -3 52 -8 85 -11 303 -30 678 -142 975 -292 179 -90 449 -269 565
-374 121 -111 156 -144 220 -210 90 -93 139 -149 196 -222 24 -31 52 -67 62
-80 41 -51 207 -309 255 -394 153 -275 292 -624 378 -949 19 -75 37 -144 39
-153 2 -9 13 -60 24 -112 21 -100 22 -107 46 -265 9 -55 18 -107 20 -115 2 -8
7 -53 10 -100 4 -47 9 -87 10 -90 3 -5 12 -128 21 -285 4 -70 4 -518 0 -585
-12 -192 -17 -268 -21 -290 -2 -14 -7 -52 -10 -85 -6 -62 -10 -90 -25 -190 -5
-33 -12 -78 -15 -100 -3 -22 -10 -62 -16 -90 -5 -27 -11 -61 -14 -75 -26 -139
-92 -389 -144 -550 -28 -85 -55 -164 -61 -175 -5 -11 -30 -72 -55 -135 -168
-419 -421 -805 -735 -1121 -168 -169 -295 -275 -472 -393 -145 -96 -497 -276
-541 -276 -7 0 -17 -4 -22 -9 -22 -20 -289 -98 -435 -127 -14 -3 -43 -9 -65
-14 -22 -5 -67 -12 -100 -15 -33 -4 -62 -9 -65 -10 -3 -2 -46 -6 -95 -10 -50
-4 -110 -8 -135 -11 -105 -9 -407 -3 -515 11 -22 2 -60 7 -85 10 -25 3 -56 7
-70 10 -14 3 -45 8 -70 11 -25 3 -48 8 -51 10 -4 2 -24 6 -45 10 -22 3 -73 14
-114 25 -583 153 -1067 448 -1468 896 -126 141 -285 358 -378 518 -16 27 -37
63 -46 80 -18 30 -161 320 -191 387 -10 20 -17 42 -17 50 0 8 -4 18 -8 23 -25
29 -165 456 -188 575 -3 14 -7 33 -10 42 -6 21 -8 30 -38 173 -30 147 -36 184
-51 300 -4 33 -9 69 -12 80 -2 11 -6 47 -9 80 -2 33 -7 74 -9 90 -27 203 -28
914 0 1145 2 19 9 80 15 135 6 55 13 114 16 130 12 76 16 97 35 205 109 607
340 1187 651 1633 118 169 215 285 363 433 298 299 611 507 994 659 181 72
487 153 641 170 30 3 62 8 70 10 8 2 53 7 100 10 47 4 87 8 89 10 5 6 492 -2
521 -8z"/>
<path d="M26997 25374 c-1 -1 -29 -4 -62 -7 -141 -14 -283 -89 -434 -228 -98
-91 -156 -145 -261 -239 -52 -47 -101 -92 -110 -100 -9 -8 -65 -60 -126 -115
-60 -54 -116 -106 -125 -115 -9 -8 -49 -45 -90 -82 -41 -36 -88 -79 -105 -95
-16 -15 -70 -64 -118 -108 -48 -44 -105 -96 -126 -115 -21 -19 -78 -71 -126
-115 -285 -256 -369 -360 -430 -530 -24 -64 -29 -104 -28 -205 1 -75 7 -112
28 -175 59 -175 88 -213 595 -784 36 -41 86 -98 111 -126 25 -28 77 -87 116
-130 39 -44 84 -96 100 -115 16 -19 36 -42 44 -50 12 -13 73 -82 145 -164 6
-6 30 -34 55 -61 25 -28 74 -84 110 -125 36 -41 105 -119 154 -175 139 -156
217 -245 270 -305 27 -30 63 -71 80 -90 17 -19 82 -93 145 -165 63 -71 144
-164 181 -205 86 -95 308 -346 380 -430 30 -35 78 -88 105 -118 28 -30 61 -68
75 -85 14 -17 34 -40 45 -52 22 -22 63 -69 165 -185 36 -41 85 -97 110 -125
25 -28 70 -79 100 -114 30 -35 64 -73 75 -85 51 -56 115 -128 170 -191 82 -93
83 -94 142 -161 28 -32 62 -71 75 -85 12 -14 37 -41 53 -60 52 -60 179 -203
207 -233 l27 -30 -70 -80 c-39 -45 -85 -97 -103 -116 -18 -19 -127 -143 -242
-275 -235 -270 -251 -288 -279 -319 -11 -12 -42 -48 -70 -80 -27 -32 -59 -68
-70 -81 -11 -12 -45 -51 -76 -86 -66 -76 -208 -238 -289 -329 -31 -36 -108
-123 -171 -195 -62 -71 -118 -135 -124 -141 -5 -6 -35 -40 -66 -75 -31 -35
-94 -107 -140 -159 -45 -52 -92 -106 -104 -119 -29 -35 -87 -100 -110 -125
-11 -12 -44 -50 -74 -86 -30 -36 -60 -69 -65 -75 -6 -5 -40 -44 -75 -85 -36
-41 -70 -79 -75 -85 -6 -5 -36 -39 -66 -75 -30 -35 -62 -72 -70 -80 -16 -18
-23 -25 -189 -215 -63 -71 -140 -159 -171 -195 -32 -36 -94 -108 -140 -160
-45 -52 -97 -111 -114 -130 -17 -19 -110 -125 -206 -235 -96 -110 -181 -206
-188 -214 -7 -7 -52 -59 -100 -114 -48 -56 -94 -108 -102 -117 -8 -9 -42 -47
-75 -85 -33 -38 -71 -80 -84 -94 -12 -14 -39 -46 -60 -70 -20 -24 -47 -55 -61
-70 -259 -277 -363 -481 -354 -692 3 -85 10 -117 39 -196 58 -152 152 -266
401 -480 12 -10 61 -55 110 -99 49 -45 105 -94 124 -110 19 -16 42 -36 50 -44
40 -37 143 -131 210 -190 40 -36 78 -69 84 -75 6 -5 52 -46 101 -90 50 -44 92
-82 95 -85 3 -3 50 -46 105 -95 55 -49 115 -103 134 -120 18 -16 43 -39 55
-50 99 -89 181 -161 204 -178 15 -12 29 -24 32 -27 33 -36 179 -108 275 -135
85 -25 210 -23 310 4 165 46 284 140 491 386 60 72 132 157 159 190 28 33 57
67 65 76 8 8 24 26 35 40 11 13 94 112 185 219 91 107 174 206 185 219 11 13
25 29 30 35 6 6 33 38 60 71 28 33 60 71 71 85 12 14 153 180 314 370 160 190
301 356 313 370 12 14 72 84 132 155 98 117 229 271 295 349 72 85 109 128
149 176 42 49 410 484 491 580 21 25 120 142 220 260 100 118 195 231 212 250
16 19 46 55 66 79 21 25 55 66 77 91 77 89 133 156 246 290 62 74 116 137 119
140 3 3 28 31 55 64 l49 58 26 -29 c14 -17 33 -40 43 -52 10 -13 69 -84 130
-159 62 -75 119 -145 127 -156 8 -10 20 -23 25 -30 6 -6 30 -36 55 -66 25 -30
47 -57 50 -60 3 -3 43 -52 90 -110 46 -58 87 -107 90 -110 3 -3 32 -39 65 -80
33 -41 68 -84 79 -95 10 -11 30 -36 45 -55 23 -31 57 -72 86 -104 6 -6 48 -58
95 -116 46 -58 87 -107 90 -110 3 -3 23 -27 46 -55 151 -186 702 -857 729
-890 19 -22 91 -110 161 -195 70 -85 138 -169 153 -186 14 -17 33 -40 41 -50
25 -32 104 -129 110 -134 3 -3 23 -27 45 -55 21 -27 42 -52 45 -55 3 -3 23
-27 45 -55 22 -27 47 -59 57 -70 15 -19 102 -124 173 -210 19 -22 100 -121
180 -220 148 -181 173 -211 275 -334 30 -37 73 -89 95 -116 22 -27 52 -62 66
-79 14 -17 33 -40 41 -51 73 -93 234 -281 267 -310 135 -122 266 -181 416
-186 191 -7 406 94 595 281 14 14 86 79 160 145 74 66 144 129 156 140 19 18
150 136 194 175 45 40 191 170 240 215 67 62 61 56 155 140 43 39 90 81 104
93 41 38 179 162 240 217 129 115 216 204 262 268 27 37 47 67 43 67 -3 0 3
12 14 28 49 71 82 207 78 327 -7 194 -84 347 -286 565 -8 9 -26 30 -40 46 -33
39 -154 178 -160 184 -3 3 -34 39 -70 80 -36 41 -67 77 -70 80 -3 3 -30 34
-60 70 -30 36 -57 67 -60 70 -9 8 -160 181 -283 324 -10 12 -28 32 -40 46 -13
14 -103 117 -201 230 -98 113 -193 221 -210 240 -17 19 -58 66 -91 105 -33 38
-64 75 -70 81 -23 25 -297 339 -409 468 -28 33 -67 78 -87 100 -20 23 -49 56
-65 75 -16 19 -33 39 -39 45 -5 6 -39 45 -75 86 -36 41 -79 91 -96 110 -17 19
-114 130 -214 245 -100 116 -197 226 -214 245 -17 19 -74 85 -126 145 -52 61
-99 115 -105 121 -5 6 -35 39 -65 74 -30 35 -59 68 -65 74 -5 6 -39 45 -75 86
-36 41 -69 80 -75 86 -5 6 -32 38 -60 69 -27 32 -86 99 -130 150 -72 82 -120
136 -240 275 -125 144 -165 189 -209 239 -27 31 -62 72 -79 91 -17 19 -39 45
-49 57 -20 21 -20 21 49 100 38 43 114 130 168 193 54 63 101 117 104 120 3 3
33 37 66 75 33 39 62 72 65 75 3 3 32 37 65 75 33 39 62 72 65 75 3 3 32 37
65 75 33 39 62 72 65 75 3 3 61 70 130 150 69 80 129 150 135 156 5 6 35 39
65 74 30 35 89 103 130 150 41 48 86 100 100 116 132 154 163 190 174 199 6 6
22 24 35 40 12 17 37 46 54 65 18 20 59 67 91 105 33 39 64 75 70 80 6 6 67
75 136 155 68 80 127 147 130 150 3 3 43 50 90 105 47 55 94 109 105 121 11
12 56 63 100 115 44 52 84 99 90 105 17 18 116 131 265 304 78 91 154 179 169
195 14 17 69 79 121 140 52 60 100 115 106 121 5 6 30 35 55 64 24 29 51 60
59 69 9 9 43 47 75 86 33 38 65 75 70 81 6 6 35 39 65 74 30 35 60 68 65 74 6
6 35 40 65 76 30 36 63 74 74 85 85 91 174 249 205 367 26 96 23 255 -7 344
-59 177 -135 277 -388 509 -126 116 -236 218 -314 291 -30 28 -68 64 -85 79
-16 14 -55 50 -86 78 -30 29 -106 99 -169 157 -62 58 -130 121 -150 140 -20
19 -59 55 -86 79 -27 24 -98 90 -159 146 -60 57 -135 126 -165 154 -263 244
-558 287 -818 118 -37 -24 -90 -66 -118 -93 -39 -38 -283 -324 -484 -567 -8
-10 -23 -28 -34 -40 -10 -12 -35 -42 -55 -67 -20 -25 -39 -47 -42 -50 -3 -3
-52 -61 -110 -130 -57 -69 -106 -127 -109 -130 -3 -3 -41 -48 -85 -100 -44
-52 -82 -97 -85 -100 -3 -3 -31 -36 -62 -75 -31 -38 -65 -79 -75 -90 -10 -11
-38 -45 -63 -75 -25 -30 -47 -57 -50 -60 -3 -3 -73 -86 -155 -185 -82 -99
-152 -182 -155 -185 -10 -10 -205 -243 -233 -278 -15 -20 -31 -39 -35 -42 -4
-3 -38 -43 -76 -90 -38 -47 -74 -90 -80 -95 -6 -6 -31 -35 -56 -65 -25 -30
-53 -64 -62 -75 -9 -11 -56 -67 -104 -125 -48 -58 -101 -121 -118 -141 -17
-19 -40 -46 -51 -60 -11 -13 -67 -80 -125 -149 -58 -69 -112 -134 -121 -145
-9 -11 -60 -72 -114 -135 -53 -63 -104 -124 -113 -135 -56 -68 -218 -261 -222
-265 -6 -6 -247 -293 -270 -322 -15 -18 -36 5 -382 409 -201 235 -374 438
-384 449 -11 12 -35 41 -56 65 -34 42 -49 59 -101 119 -12 14 -74 86 -137 160
-63 74 -125 146 -136 160 -108 126 -326 380 -608 710 -186 217 -359 420 -385
450 -27 30 -108 125 -180 210 -73 85 -152 178 -176 205 -23 28 -59 70 -80 95
-20 25 -46 55 -58 67 -12 11 -33 36 -47 54 -14 18 -32 40 -41 48 -8 9 -66 77
-129 151 -63 74 -117 137 -120 140 -3 3 -28 32 -55 65 -28 33 -52 62 -55 65
-3 3 -59 67 -124 143 -65 76 -142 161 -170 188 -91 89 -230 171 -331 196 -24
5 -145 20 -148 17z"/>
</g>
</svg>
